<svg xmlns="http://www.w3.org/2000/svg" viewBox="0 0 64 64">
  <defs>
    <linearGradient id="cupGrad" x1="0%" y1="0%" x2="100%" y2="0%">
      <stop offset="0%" style="stop-color:#D35400;stop-opacity:1" />
      <stop offset="100%" style="stop-color:#E67E22;stop-opacity:1" />
    </linearGradient>
    <linearGradient id="steamGrad" x1="0%" y1="100%" x2="0%" y2="0%">
      <stop offset="0%" style="stop-color:#ccc;stop-opacity:0.6" />
      <stop offset="100%" style="stop-color:#fff;stop-opacity:0" />
    </linearGradient>
  </defs>

  <ellipse cx="32" cy="56" rx="24" ry="6" fill="#A04000" />
  <ellipse cx="32" cy="54" rx="20" ry="4" fill="#FFFFFF" opacity="0.2" />

  <path d="M48 28c0-4.4-3.6-8-8-8h-2v24h2c4.4 0 8-3.6 8-8v-8z" fill="#BA4A00" />
  <path d="M46 28c0-2.2-1.8-4-4-4h-2v16h2c2.2 0 4-1.8 4-4v-8z" fill="#F4F6F8" />

  <path d="M16 20h30c0 0 2 24-2 30c-4 6-26 6-30 0c-4-6-2-30-2-30z" fill="url(#cupGrad)" />
  
  <ellipse cx="31" cy="20" rx="15" ry="3" fill="#6E2C00" />

  <path d="M26 12q-2-4 2-8" stroke="url(#steamGrad)" stroke-width="3" fill="none" stroke-linecap="round" />
  <path d="M32 10q-2-6 2-10" stroke="url(#steamGrad)" stroke-width="3" fill="none" stroke-linecap="round" />
  <path d="M38 12q-2-4 2-8" stroke="url(#steamGrad)" stroke-width="3" fill="none" stroke-linecap="round" />
</svg>